<svg viewBox="0 0 40 40" fill="none" xmlns="http://www.w3.org/2000/svg"><g filter="url(#filter0_d_101_421)" clip-path="url(#clip0_101_421)"><path d="M15 5v3.333V5Zm10 0v3.333V5ZM15 31.667V35v-3.333Zm10 0V35v-3.333ZM8.333 15H5h3.333Zm0 10H5h3.333ZM35 15h-3.333H35Zm0 10h-3.333H35Zm-23.333 6.667h16.666a3.334 3.334 0 0 0 3.334-3.334V11.667a3.333 3.333 0 0 0-3.334-3.334H11.667a3.333 3.333 0 0 0-3.334 3.334v16.666a3.334 3.334 0 0 0 3.334 3.334ZM15 15h10v10H15V15Z" stroke="url(#paint0_linear_101_421)" stroke-width="3.333" stroke-linecap="round" stroke-linejoin="round" shape-rendering="crispEdges"/></g><defs><linearGradient id="paint0_linear_101_421" x1="6.5" y1="5" x2="36.5" y2="35" gradientUnits="userSpaceOnUse"><stop stop-color="#00FFC4"/><stop offset="1" stop-color="#00E1FF" stop-opacity=".6"/></linearGradient><clipPath id="clip0_101_421"><path fill="#fff" d="M0 0h40v40H0z"/></clipPath><filter id="filter0_d_101_421" x="-.667" y="1.333" width="41.333" height="41.334" filterUnits="userSpaceOnUse" color-interpolation-filters="sRGB"><feFlood flood-opacity="0" result="BackgroundImageFix"/><feColorMatrix in="SourceAlpha" values="0 0 0 0 0 0 0 0 0 0 0 0 0 0 0 0 0 0 127 0" result="hardAlpha"/><feOffset dy="2"/><feGaussianBlur stdDeviation="2"/><feComposite in2="hardAlpha" operator="out"/><feColorMatrix values="0 0 0 0 0.030625 0 0 0 0 0.0693438 0 0 0 0 0.116667 0 0 0 0.5 0"/><feBlend in2="BackgroundImageFix" result="effect1_dropShadow_101_421"/><feBlend in="SourceGraphic" in2="effect1_dropShadow_101_421" result="shape"/></filter></defs></svg>
