<svg viewBox="0 0 40 40" fill="none" xmlns="http://www.w3.org/2000/svg"><g clip-path="url(#clip0_101_442)"><g filter="url(#filter0_d_101_442)"><path d="M25 20a5 5 0 1 1-10 0 5 5 0 0 1 10 0Z" stroke="url(#paint0_linear_101_442)" stroke-width="3.333" stroke-linecap="round" stroke-linejoin="round" shape-rendering="crispEdges"/></g><g filter="url(#filter1_d_101_442)"><path d="M4.097 20C6.22 13.238 12.538 8.333 20 8.333c7.463 0 13.78 4.905 15.903 11.667C33.78 26.762 27.463 31.667 20 31.667c-7.462 0-13.78-4.905-15.903-11.667Z" stroke="url(#paint1_linear_101_442)" stroke-width="3.333" stroke-linecap="round" stroke-linejoin="round" shape-rendering="crispEdges"/></g></g><defs><linearGradient id="paint0_linear_101_442" x1="15.5" y1="15" x2="25.5" y2="25" gradientUnits="userSpaceOnUse"><stop stop-color="#00FFC4"/><stop offset="1" stop-color="#00E1FF" stop-opacity=".6"/></linearGradient><linearGradient id="paint1_linear_101_442" x1="5.687" y1="8.333" x2="27.944" y2="38.672" gradientUnits="userSpaceOnUse"><stop stop-color="#00FFC4"/><stop offset="1" stop-color="#00E1FF" stop-opacity=".6"/></linearGradient><filter id="filter0_d_101_442" x="9.333" y="11.333" width="21.333" height="21.334" filterUnits="userSpaceOnUse" color-interpolation-filters="sRGB"><feFlood flood-opacity="0" result="BackgroundImageFix"/><feColorMatrix in="SourceAlpha" values="0 0 0 0 0 0 0 0 0 0 0 0 0 0 0 0 0 0 127 0" result="hardAlpha"/><feOffset dy="2"/><feGaussianBlur stdDeviation="2"/><feComposite in2="hardAlpha" operator="out"/><feColorMatrix values="0 0 0 0 0.030625 0 0 0 0 0.0693438 0 0 0 0 0.116667 0 0 0 0.5 0"/><feBlend in2="BackgroundImageFix" result="effect1_dropShadow_101_442"/><feBlend in="SourceGraphic" in2="effect1_dropShadow_101_442" result="shape"/></filter><filter id="filter1_d_101_442" x="-1.57" y="4.667" width="43.14" height="34.667" filterUnits="userSpaceOnUse" color-interpolation-filters="sRGB"><feFlood flood-opacity="0" result="BackgroundImageFix"/><feColorMatrix in="SourceAlpha" values="0 0 0 0 0 0 0 0 0 0 0 0 0 0 0 0 0 0 127 0" result="hardAlpha"/><feOffset dy="2"/><feGaussianBlur stdDeviation="2"/><feComposite in2="hardAlpha" operator="out"/><feColorMatrix values="0 0 0 0 0.030625 0 0 0 0 0.0693438 0 0 0 0 0.116667 0 0 0 0.5 0"/><feBlend in2="BackgroundImageFix" result="effect1_dropShadow_101_442"/><feBlend in="SourceGraphic" in2="effect1_dropShadow_101_442" result="shape"/></filter><clipPath id="clip0_101_442"><path fill="#fff" d="M0 0h40v40H0z"/></clipPath></defs></svg>
