<svg viewBox="0 0 40 40" fill="none" xmlns="http://www.w3.org/2000/svg"><g filter="url(#filter0_d_101_449)" clip-path="url(#clip0_101_449)"><path d="M9.393 30.607a15 15 0 0 1 0-21.213m21.214 0a15 15 0 0 1 0 21.213m-16.5-4.715a8.333 8.333 0 0 1 0-11.783m11.787 0a8.333 8.333 0 0 1 0 11.783M21.666 20a1.667 1.667 0 1 1-3.334 0 1.667 1.667 0 0 1 3.334 0Z" stroke="url(#paint0_linear_101_449)" stroke-width="3.333" stroke-linecap="round" stroke-linejoin="round" shape-rendering="crispEdges"/></g><defs><linearGradient id="paint0_linear_101_449" x1="6.5" y1="9.394" x2="26.5" y2="37.678" gradientUnits="userSpaceOnUse"><stop stop-color="#00FFC4"/><stop offset="1" stop-color="#00E1FF" stop-opacity=".6"/></linearGradient><clipPath id="clip0_101_449"><path fill="#fff" d="M0 0h40v40H0z"/></clipPath><filter id="filter0_d_101_449" x="-.667" y="5.727" width="41.334" height="32.547" filterUnits="userSpaceOnUse" color-interpolation-filters="sRGB"><feFlood flood-opacity="0" result="BackgroundImageFix"/><feColorMatrix in="SourceAlpha" values="0 0 0 0 0 0 0 0 0 0 0 0 0 0 0 0 0 0 127 0" result="hardAlpha"/><feOffset dy="2"/><feGaussianBlur stdDeviation="2"/><feComposite in2="hardAlpha" operator="out"/><feColorMatrix values="0 0 0 0 0.030625 0 0 0 0 0.0693438 0 0 0 0 0.116667 0 0 0 0.5 0"/><feBlend in2="BackgroundImageFix" result="effect1_dropShadow_101_449"/><feBlend in="SourceGraphic" in2="effect1_dropShadow_101_449" result="shape"/></filter></defs></svg>
