<svg viewBox="0 0 40 40" fill="none" xmlns="http://www.w3.org/2000/svg"><g filter="url(#filter0_d_101_440)" clip-path="url(#clip0_101_440)"><path d="M15 8.333h-3.333a3.333 3.333 0 0 0-3.334 3.334v20A3.333 3.333 0 0 0 11.667 35h16.666a3.333 3.333 0 0 0 3.334-3.333v-20a3.333 3.333 0 0 0-3.334-3.334H25m-10 0a3.334 3.334 0 0 0 3.333 3.334h3.334A3.334 3.334 0 0 0 25 8.333m-10 0A3.333 3.333 0 0 1 18.333 5h3.334A3.334 3.334 0 0 1 25 8.333m-10 15 3.333 3.334L25 20" stroke="url(#paint0_linear_101_440)" stroke-width="3.333" stroke-linecap="round" stroke-linejoin="round" shape-rendering="crispEdges"/></g><defs><linearGradient id="paint0_linear_101_440" x1="9.5" y1="5" x2="38.577" y2="27.615" gradientUnits="userSpaceOnUse"><stop stop-color="#00FFC4"/><stop offset="1" stop-color="#00E1FF" stop-opacity=".6"/></linearGradient><clipPath id="clip0_101_440"><path fill="#fff" d="M0 0h40v40H0z"/></clipPath><filter id="filter0_d_101_440" x="2.667" y="1.333" width="34.667" height="41.333" filterUnits="userSpaceOnUse" color-interpolation-filters="sRGB"><feFlood flood-opacity="0" result="BackgroundImageFix"/><feColorMatrix in="SourceAlpha" values="0 0 0 0 0 0 0 0 0 0 0 0 0 0 0 0 0 0 127 0" result="hardAlpha"/><feOffset dy="2"/><feGaussianBlur stdDeviation="2"/><feComposite in2="hardAlpha" operator="out"/><feColorMatrix values="0 0 0 0 0.030625 0 0 0 0 0.0693438 0 0 0 0 0.116667 0 0 0 0.5 0"/><feBlend in2="BackgroundImageFix" result="effect1_dropShadow_101_440"/><feBlend in="SourceGraphic" in2="effect1_dropShadow_101_440" result="shape"/></filter></defs></svg>
