<svg viewBox="0 0 40 40" fill="none" xmlns="http://www.w3.org/2000/svg"><g filter="url(#filter0_d_101_403)" clip-path="url(#clip0_101_403)"><path d="M20 10V6.667M20 10a3.333 3.333 0 1 0 0 6.667M20 10a3.333 3.333 0 1 1 0 6.667m0 0v16.666M10 30a3.333 3.333 0 1 0 0-6.667M10 30a3.333 3.333 0 0 1 0-6.667M10 30v3.333m0-10V6.667M30 30a3.333 3.333 0 1 0 0-6.667M30 30a3.333 3.333 0 1 1 0-6.667M30 30v3.333m0-10V6.667" stroke="url(#paint0_linear_101_403)" stroke-width="3.333" stroke-linecap="round" stroke-linejoin="round" shape-rendering="crispEdges"/></g><defs><linearGradient id="paint0_linear_101_403" x1="8" y1="6.667" x2="34.667" y2="33.333" gradientUnits="userSpaceOnUse"><stop stop-color="#00FFC4"/><stop offset="1" stop-color="#00E1FF" stop-opacity=".6"/></linearGradient><clipPath id="clip0_101_403"><path fill="#fff" d="M0 0h40v40H0z"/></clipPath><filter id="filter0_d_101_403" x="1" y="3" width="38" height="38" filterUnits="userSpaceOnUse" color-interpolation-filters="sRGB"><feFlood flood-opacity="0" result="BackgroundImageFix"/><feColorMatrix in="SourceAlpha" values="0 0 0 0 0 0 0 0 0 0 0 0 0 0 0 0 0 0 127 0" result="hardAlpha"/><feOffset dy="2"/><feGaussianBlur stdDeviation="2"/><feComposite in2="hardAlpha" operator="out"/><feColorMatrix values="0 0 0 0 0.030625 0 0 0 0 0.0693438 0 0 0 0 0.116667 0 0 0 0.5 0"/><feBlend in2="BackgroundImageFix" result="effect1_dropShadow_101_403"/><feBlend in="SourceGraphic" in2="effect1_dropShadow_101_403" result="shape"/></filter></defs></svg>
